<svg id="Layer_1" data-name="Layer 1" xmlns="http://www.w3.org/2000/svg" viewBox="0 0 24 24" stroke-width="2" width="36"
     height="36" color="#3369F3">
    <defs>
        <style>
            .cls-637642e7c3a86d32eae6f1a8-1{fill:none;stroke:currentColor;stroke-miterlimit:10;}.cls-637642e7c3a86d32eae6f1a8-2{fill:currentColor;}
        </style>
    </defs>
    <path class="cls-637642e7c3a86d32eae6f1a8-1"
          d="M18.68,1.48H5.32A3.82,3.82,0,0,0,1.5,5.3v9.54a3.82,3.82,0,0,0,3.82,3.82H9.14L12,21.52l2.86-2.86h3.82a3.82,3.82,0,0,0,3.82-3.82V5.3A3.82,3.82,0,0,0,18.68,1.48Z"/>
    <polygon class="cls-637642e7c3a86d32eae6f1a8-2"
             points="17.73 13.89 10.36 13.89 11.16 12.63 14.04 8.16 17.73 13.89"/>
    <polygon class="cls-637642e7c3a86d32eae6f1a8-2"
             points="11.16 12.63 10.36 13.89 6.27 13.89 9.14 9.59 11.16 12.63"/>
    <circle class="cls-637642e7c3a86d32eae6f1a8-2" cx="9.61" cy="6.73" r="1.43"/>
</svg>
